<svg width="80" height="80" viewBox="0 0 80 80" fill="none" xmlns="http://www.w3.org/2000/svg">
<path d="M76.7188 50.9375V14.3973C76.7188 12.347 75.0405 10.625 72.9902 10.625L53.3016 10.625C51.8505 10.625 50.5323 11.5005 49.9272 12.8194L47.9414 17.1792C47.3363 18.4981 46.0181 19.375 44.567 19.375H10.5528C8.5025 19.375 6.875 21.0041 6.875 23.0545L6.875 56.8612C6.875 58.9116 8.5025 60.625 10.5528 60.625H72.9902C73.0883 60.625 73.1852 60.5687 73.2813 60.5612V67.6562H73.3347C73.3347 68.5937 74.0967 69.3181 75.0267 69.3181C75.9567 69.3181 76.7188 68.542 76.7188 67.612V50.9375Z" fill="#FA65B7"/>
<path d="M75.0267 69.3181C74.0967 69.3181 73.3347 68.5938 73.3347 67.6562H73.2812V32.8408C73.2812 30.7903 71.6658 29.0625 69.6155 29.0625H7.17812C5.12781 29.0625 3.4375 30.7903 3.4375 32.8408L3.4375 70.2141C3.4375 72.2644 5.12781 73.9062 7.17812 73.9062H69.6155C69.8319 73.9062 70.0437 73.8969 70.25 73.8613C70.5061 73.8967 70.7672 73.9214 71.0331 73.9214C74.1644 73.9214 76.6794 71.3856 76.6794 68.2544C76.6794 68.1709 76.6737 68.0891 76.6703 68.0066C76.4911 68.7513 75.8211 69.3181 75.0267 69.3181Z" fill="#FF82C1"/>
<path d="M24.0834 61.0718H22.2368L27.5777 46.5263H29.3959L34.7368 61.0718H32.8902L28.5436 48.8275H28.43L24.0834 61.0718ZM24.7652 55.39H32.2084V56.9525H24.7652V55.39ZM37.0024 61.0718V46.5263H38.7638V59.5093H45.5251V61.0718H37.0024ZM48.2524 61.0718V46.5263H50.0138V59.5093H56.7751V61.0718H48.2524Z" fill="black"/>
</svg>
