<svg width="130" height="130" viewBox="0 0 130 130" fill="none" xmlns="http://www.w3.org/2000/svg">
<path d="M124.668 82.7734V23.3957C124.668 20.0639 121.941 17.2656 118.609 17.2656H86.615C84.257 17.2656 82.1151 18.6883 81.1317 20.8315L77.9048 27.9162C76.9214 30.0595 74.7794 31.4844 72.4214 31.4844H17.1483C13.8166 31.4844 11.1719 34.1316 11.1719 37.4636V92.3995C11.1719 95.7313 13.8166 98.5156 17.1483 98.5156H118.609C118.768 98.5156 118.926 98.4242 119.082 98.412V109.941H119.169C119.169 111.465 120.407 112.642 121.918 112.642C123.43 112.642 124.668 111.381 124.668 109.87V82.7734Z" fill="#FA65B7"/>
<path d="M121.918 112.642C120.407 112.642 119.169 111.465 119.169 109.941H119.082V53.3663C119.082 50.0343 116.457 47.2266 113.125 47.2266H11.6645C8.33269 47.2266 5.58594 50.0343 5.58594 53.3663V114.098C5.58594 117.43 8.33269 120.098 11.6645 120.098H113.125C113.477 120.098 113.821 120.082 114.156 120.025C114.572 120.082 114.997 120.122 115.429 120.122C120.517 120.122 124.604 116.002 124.604 110.913C124.604 110.778 124.595 110.645 124.589 110.511C124.298 111.721 123.209 112.642 121.918 112.642Z" fill="#FF82C1"/>
<path d="M19.6648 91.6631V77.1176H24.7501C25.7633 77.1176 26.599 77.2928 27.2572 77.6432C27.9153 77.9888 28.4054 78.4552 28.7273 79.0423C29.0493 79.6247 29.2103 80.271 29.2103 80.9813C29.2103 81.6063 29.099 82.1224 28.8765 82.5296C28.6587 82.9368 28.3699 83.2587 28.01 83.4955C27.6549 83.7322 27.269 83.9074 26.8523 84.021V84.1631C27.2974 84.1915 27.7449 84.3477 28.1947 84.6318C28.6445 84.9159 29.0209 85.3231 29.3239 85.8534C29.627 86.3837 29.7785 87.0324 29.7785 87.7994C29.7785 88.5286 29.6128 89.1844 29.2813 89.7668C28.9499 90.3492 28.4267 90.8108 27.7117 91.1517C26.9967 91.4926 26.0664 91.6631 24.9205 91.6631H19.6648ZM21.4262 90.1006H24.9205C26.0711 90.1006 26.8878 89.878 27.3708 89.433C27.8585 88.9832 28.1023 88.4387 28.1023 87.7994C28.1023 87.307 27.9769 86.8525 27.7259 86.4358C27.475 86.0144 27.1175 85.6782 26.6535 85.4273C26.1895 85.1716 25.6402 85.0438 25.0057 85.0438H21.4262V90.1006ZM21.4262 83.5097H24.6932C25.2235 83.5097 25.7018 83.4055 26.1279 83.1972C26.5588 82.9888 26.8997 82.6953 27.1506 82.3165C27.4063 81.9377 27.5342 81.4926 27.5342 80.9813C27.5342 80.3421 27.3116 79.7999 26.8665 79.3548C26.4215 78.905 25.716 78.6801 24.7501 78.6801H21.4262V83.5097ZM33.2692 91.6631H31.4226L36.7636 77.1176H38.5817L43.9226 91.6631H42.0761L37.7295 79.4188H37.6158L33.2692 91.6631ZM33.9511 85.9813H41.3942V87.5438H33.9511V85.9813ZM57.2092 81.6631H55.4479C55.3437 81.1565 55.1614 80.7114 54.901 80.3279C54.6453 79.9443 54.3328 79.6224 53.9635 79.3619C53.5989 79.0968 53.1941 78.8979 52.749 78.7654C52.3039 78.6328 51.8399 78.5665 51.357 78.5665C50.4763 78.5665 49.6784 78.789 48.9635 79.2341C48.2533 79.6792 47.6874 80.335 47.266 81.2014C46.8494 82.0679 46.641 83.1309 46.641 84.3904C46.641 85.6498 46.8494 86.7128 47.266 87.5793C47.6874 88.4458 48.2533 89.1015 48.9635 89.5466C49.6784 89.9917 50.4763 90.2142 51.357 90.2142C51.8399 90.2142 52.3039 90.1479 52.749 90.0154C53.1941 89.8828 53.5989 89.6863 53.9635 89.4259C54.3328 89.1607 54.6453 88.8364 54.901 88.4529C55.1614 88.0646 55.3437 87.6195 55.4479 87.1176H57.2092C57.0767 87.861 56.8352 88.5262 56.4848 89.1134C56.1344 89.7005 55.6988 90.2 55.178 90.6119C54.6571 91.0191 54.0724 91.3293 53.4237 91.5423C52.7798 91.7554 52.0909 91.8619 51.357 91.8619C50.1164 91.8619 49.0132 91.5589 48.0473 90.9529C47.0814 90.3468 46.3214 89.4851 45.7675 88.3676C45.2135 87.2502 44.9365 85.9244 44.9365 84.3904C44.9365 82.8563 45.2135 81.5305 45.7675 80.4131C46.3214 79.2957 47.0814 78.4339 48.0473 77.8279C49.0132 77.2218 50.1164 76.9188 51.357 76.9188C52.0909 76.9188 52.7798 77.0253 53.4237 77.2384C54.0724 77.4514 54.6571 77.7639 55.178 78.1759C55.6988 78.5831 56.1344 79.0802 56.4848 79.6673C56.8352 80.2497 57.0767 80.915 57.2092 81.6631ZM60.0555 91.6631V77.1176H61.8168V84.3335H61.9873L68.5214 77.1176H70.8225L64.7146 83.6801L70.8225 91.6631H68.6918L63.635 84.9017L61.8168 86.9472V91.6631H60.0555ZM73.1023 91.6631V77.1176H81.8807V78.6801H74.8637V83.5949H81.4262V85.1574H74.8637V90.1006H81.9944V91.6631H73.1023ZM96.5896 77.1176V91.6631H94.885L86.9589 80.2426H86.8168V91.6631H85.0555V77.1176H86.76L94.7146 88.5665H94.8566V77.1176H96.5896ZM104.603 91.6631H100.114V77.1176H104.802C106.213 77.1176 107.42 77.4088 108.424 77.9912C109.428 78.5689 110.197 79.3998 110.732 80.4841C111.267 81.5637 111.535 82.8563 111.535 84.3619C111.535 85.8771 111.265 87.1816 110.725 88.2753C110.185 89.3643 109.399 90.2024 108.367 90.7895C107.335 91.3719 106.08 91.6631 104.603 91.6631ZM101.875 90.1006H104.489C105.692 90.1006 106.688 89.8686 107.479 89.4046C108.27 88.9405 108.859 88.28 109.248 87.423C109.636 86.566 109.83 85.5457 109.83 84.3619C109.83 83.1877 109.638 82.1768 109.255 81.3293C108.871 80.477 108.298 79.8236 107.536 79.3691C106.774 78.9098 105.824 78.6801 104.688 78.6801H101.875V90.1006Z" fill="black"/>
</svg>
