<svg width="18" height="19" viewBox="0 0 18 19" fill="none" xmlns="http://www.w3.org/2000/svg">
<path opacity="0.2" d="M16.5312 2.875V6.46875H0.71875L0.71875 2.875C0.71875 2.68438 0.794475 2.50156 0.929267 2.36677C1.06406 2.23198 1.24688 2.15625 1.4375 2.15625L15.8125 2.15625C16.0031 2.15625 16.1859 2.23198 16.3207 2.36677C16.4555 2.50156 16.5312 2.68438 16.5312 2.875Z" fill="#00375B"/>
<path d="M15.8125 1.4375H13.6562V0.71875C13.6562 0.528126 13.5805 0.345309 13.4457 0.210517C13.3109 0.0757252 13.1281 0 12.9375 0C12.7469 0 12.5641 0.0757252 12.4293 0.210517C12.2945 0.345309 12.2188 0.528126 12.2188 0.71875V1.4375L5.03125 1.4375V0.71875C5.03125 0.528126 4.95552 0.345309 4.82073 0.210517C4.68594 0.0757252 4.50312 0 4.3125 0C4.12188 0 3.93906 0.0757252 3.80427 0.210517C3.66948 0.345309 3.59375 0.528126 3.59375 0.71875V1.4375H1.4375C1.05625 1.4375 0.690617 1.58895 0.421034 1.85853C0.15145 2.12812 0 2.49375 0 2.875L0 17.25C0 17.6312 0.15145 17.9969 0.421034 18.2665C0.690617 18.536 1.05625 18.6875 1.4375 18.6875H15.8125C16.1937 18.6875 16.5594 18.536 16.829 18.2665C17.0985 17.9969 17.25 17.6312 17.25 17.25V2.875C17.25 2.49375 17.0985 2.12812 16.829 1.85853C16.5594 1.58895 16.1937 1.4375 15.8125 1.4375ZM3.59375 2.875V3.59375C3.59375 3.78437 3.66948 3.96719 3.80427 4.10198C3.93906 4.23677 4.12188 4.3125 4.3125 4.3125C4.50312 4.3125 4.68594 4.23677 4.82073 4.10198C4.95552 3.96719 5.03125 3.78437 5.03125 3.59375V2.875L12.2188 2.875V3.59375C12.2188 3.78437 12.2945 3.96719 12.4293 4.10198C12.5641 4.23677 12.7469 4.3125 12.9375 4.3125C13.1281 4.3125 13.3109 4.23677 13.4457 4.10198C13.5805 3.96719 13.6562 3.78437 13.6562 3.59375V2.875H15.8125V5.75H1.4375L1.4375 2.875H3.59375ZM15.8125 17.25H1.4375L1.4375 7.1875H15.8125V17.25ZM7.1875 9.34375V15.0938C7.1875 15.2844 7.11177 15.4672 6.97698 15.602C6.84219 15.7368 6.65937 15.8125 6.46875 15.8125C6.27813 15.8125 6.09531 15.7368 5.96052 15.602C5.82573 15.4672 5.75 15.2844 5.75 15.0938V10.5063L5.35289 10.7058C5.18228 10.7911 4.98477 10.8051 4.80382 10.7448C4.62286 10.6845 4.47327 10.5547 4.38797 10.3841C4.30266 10.2135 4.28863 10.016 4.34895 9.83507C4.40927 9.65411 4.539 9.50452 4.70961 9.41922L6.14711 8.70047C6.25673 8.64561 6.37856 8.61971 6.50101 8.62521C6.62347 8.63071 6.74248 8.66744 6.84674 8.7319C6.951 8.79637 7.03704 8.88643 7.09668 8.99352C7.15632 9.10061 7.18759 9.22117 7.1875 9.34375ZM12.5027 12.0795L10.7812 14.375H12.2188C12.4094 14.375 12.5922 14.4507 12.727 14.5855C12.8618 14.7203 12.9375 14.9031 12.9375 15.0938C12.9375 15.2844 12.8618 15.4672 12.727 15.602C12.5922 15.7368 12.4094 15.8125 12.2188 15.8125H9.34375C9.21027 15.8125 9.07943 15.7753 8.96588 15.7052C8.85233 15.635 8.76058 15.5346 8.70088 15.4152C8.64119 15.2958 8.61592 15.1621 8.6279 15.0292C8.63989 14.8963 8.68866 14.7693 8.76875 14.6625L11.3545 11.2152C11.4133 11.1369 11.4555 11.0474 11.4784 10.9522C11.5014 10.857 11.5047 10.7581 11.4881 10.6616C11.4715 10.5651 11.4354 10.473 11.3819 10.391C11.3284 10.309 11.2587 10.2387 11.1771 10.1846C11.0955 10.1304 11.0037 10.0936 10.9073 10.0762C10.811 10.0588 10.7121 10.0613 10.6167 10.0835C10.5213 10.1057 10.4315 10.1472 10.3527 10.2054C10.274 10.2636 10.2079 10.3372 10.1586 10.4219C10.1128 10.5062 10.0506 10.5805 9.97561 10.6404C9.90062 10.7004 9.81439 10.7446 9.72201 10.7707C9.62963 10.7967 9.53297 10.804 9.43773 10.7921C9.3425 10.7802 9.25061 10.7493 9.1675 10.7013C9.08439 10.6533 9.01173 10.5891 8.95382 10.5126C8.89591 10.436 8.85392 10.3487 8.83032 10.2556C8.80672 10.1626 8.80199 10.0658 8.81641 9.97087C8.83084 9.87598 8.86412 9.78494 8.9143 9.70312C9.15172 9.29226 9.51805 8.97119 9.9565 8.78968C10.3949 8.60818 10.881 8.57637 11.3394 8.6992C11.7977 8.82203 12.2028 9.09264 12.4917 9.46906C12.7807 9.84549 12.9373 10.3067 12.9375 10.7812C12.939 11.25 12.7862 11.7062 12.5027 12.0795Z" fill="#00375B"/>
</svg>
