<svg width="130" height="130" viewBox="0 0 130 130" fill="none" xmlns="http://www.w3.org/2000/svg">
<path d="M124.668 82.7734V23.3957C124.668 20.0639 121.941 17.2656 118.609 17.2656H86.615C84.257 17.2656 82.1151 18.6883 81.1317 20.8315L77.9048 27.9162C76.9214 30.0595 74.7794 31.4844 72.4214 31.4844H17.1483C13.8166 31.4844 11.1719 34.1316 11.1719 37.4636V92.3995C11.1719 95.7313 13.8166 98.5156 17.1483 98.5156H118.609C118.768 98.5156 118.926 98.4242 119.082 98.412V109.941H119.169C119.169 111.465 120.407 112.642 121.918 112.642C123.43 112.642 124.668 111.381 124.668 109.87V82.7734Z" fill="#FA65B7"/>
<path d="M121.918 112.642C120.407 112.642 119.169 111.465 119.169 109.941H119.082V53.3663C119.082 50.0343 116.457 47.2266 113.125 47.2266H11.6645C8.33269 47.2266 5.58594 50.0343 5.58594 53.3663V114.098C5.58594 117.43 8.33269 120.098 11.6645 120.098H113.125C113.477 120.098 113.821 120.082 114.156 120.025C114.572 120.082 114.997 120.122 115.429 120.122C120.517 120.122 124.604 116.002 124.604 110.913C124.604 110.778 124.595 110.645 124.589 110.511C124.298 111.721 123.209 112.642 121.918 112.642Z" fill="#FF82C1"/>
<path d="M17.9844 91.2563H13.4958V76.7109H18.1833C19.5943 76.7109 20.8017 77.0021 21.8055 77.5845C22.8092 78.1621 23.5787 78.9931 24.1137 80.0774C24.6487 81.1569 24.9163 82.4495 24.9163 83.9552C24.9163 85.4704 24.6464 86.7748 24.1066 87.8686C23.5668 88.9576 22.7808 89.7956 21.7486 90.3828C20.7164 90.9652 19.4617 91.2563 17.9844 91.2563ZM15.2572 89.6938H17.8708C19.0735 89.6938 20.0701 89.4618 20.8609 88.9978C21.6516 88.5338 22.2411 87.8733 22.6293 87.0163C23.0176 86.1593 23.2117 85.1389 23.2117 83.9552C23.2117 82.781 23.0199 81.7701 22.6364 80.9225C22.2529 80.0703 21.68 79.4169 20.9177 78.9623C20.1554 78.503 19.206 78.2734 18.0697 78.2734H15.2572V89.6938ZM27.7838 91.2563H25.9372L31.2781 76.7109H33.0963L38.4372 91.2563H36.5906L32.244 79.012H32.1304L27.7838 91.2563ZM28.4656 85.5745H35.9088V87.137H28.4656V85.5745ZM38.2082 78.2734V76.7109H49.1172V78.2734H44.5434V91.2563H42.782V78.2734H38.2082ZM50.733 91.2563H48.8864L54.2273 76.7109H56.0455L61.3864 91.2563H59.5398L55.1932 79.012H55.0796L50.733 91.2563ZM51.4148 85.5745H58.858V87.137H51.4148V85.5745ZM63.652 91.2563V76.7109H68.7373C69.7505 76.7109 70.5862 76.8861 71.2444 77.2365C71.9025 77.5821 72.3926 78.0485 72.7145 78.6356C73.0365 79.218 73.1975 79.8643 73.1975 80.5745C73.1975 81.1995 73.0862 81.7156 72.8637 82.1228C72.6459 82.53 72.3571 82.852 71.9972 83.0887C71.6421 83.3255 71.2562 83.5007 70.8395 83.6143V83.7563C71.2846 83.7848 71.7321 83.941 72.1819 84.2251C72.6317 84.5092 73.0081 84.9164 73.3111 85.4467C73.6142 85.977 73.7657 86.6257 73.7657 87.3927C73.7657 88.1219 73.6 88.7777 73.2685 89.36C72.9371 89.9424 72.4139 90.4041 71.6989 90.745C70.984 91.0859 70.0536 91.2563 68.9077 91.2563H63.652ZM65.4134 89.6938H68.9077C70.0583 89.6938 70.8751 89.4713 71.358 89.0262C71.8457 88.5764 72.0895 88.0319 72.0895 87.3927C72.0895 86.9003 71.9641 86.4457 71.7131 86.0291C71.4622 85.6077 71.1047 85.2715 70.6407 85.0206C70.1767 84.7649 69.6274 84.637 68.993 84.637H65.4134V89.6938ZM65.4134 83.1029H68.6805C69.2108 83.1029 69.689 82.9988 70.1151 82.7904C70.546 82.5821 70.8869 82.2885 71.1378 81.9098C71.3935 81.531 71.5214 81.0859 71.5214 80.5745C71.5214 79.9353 71.2988 79.3932 70.8538 78.9481C70.4087 78.4983 69.7032 78.2734 68.7373 78.2734H65.4134V83.1029ZM77.2565 91.2563H75.4099L80.7508 76.7109H82.569L87.9099 91.2563H86.0633L81.7167 79.012H81.603L77.2565 91.2563ZM77.9383 85.5745H85.3815V87.137H77.9383V85.5745ZM98.13 80.3473C98.0448 79.6276 97.6992 79.0688 97.0931 78.6711C96.487 78.2734 95.7437 78.0745 94.863 78.0745C94.219 78.0745 93.6556 78.1787 93.1726 78.387C92.6944 78.5954 92.3204 78.8818 92.0505 79.2464C91.7853 79.611 91.6528 80.0253 91.6528 80.4893C91.6528 80.8776 91.7451 81.2114 91.9297 81.4907C92.1191 81.7653 92.3606 81.995 92.6542 82.1796C92.9477 82.3596 93.2555 82.5087 93.5775 82.6271C93.8994 82.7407 94.1954 82.8331 94.4653 82.9041L95.9425 83.3018C96.3213 83.4012 96.7427 83.5385 97.2067 83.7137C97.6755 83.8889 98.1229 84.128 98.5491 84.4311C98.9799 84.7294 99.3351 85.1129 99.6144 85.5816C99.8938 86.0504 100.033 86.6257 100.033 87.3075C100.033 88.0935 99.8275 88.8037 99.4155 89.4382C99.0083 90.0726 98.4118 90.5769 97.6258 90.9509C96.8445 91.325 95.8952 91.512 94.7778 91.512C93.7361 91.512 92.8341 91.3439 92.0718 91.0078C91.3142 90.6716 90.7176 90.2028 90.282 89.6015C89.8512 89.0002 89.6073 88.3018 89.5505 87.5063H91.3687C91.416 88.0556 91.6007 88.5101 91.9226 88.87C92.2494 89.2251 92.6613 89.4902 93.1584 89.6654C93.6603 89.8359 94.2001 89.9211 94.7778 89.9211C95.4501 89.9211 96.0538 89.8122 96.5888 89.5944C97.1239 89.3719 97.5476 89.0641 97.8601 88.6711C98.1726 88.2734 98.3289 87.8094 98.3289 87.2791C98.3289 86.7961 98.194 86.4031 97.9241 86.1001C97.6542 85.7971 97.2991 85.5509 96.8587 85.3615C96.4184 85.1721 95.9425 85.0063 95.4312 84.8643L93.6414 84.3529C92.505 84.0262 91.6054 83.5599 90.9425 82.9538C90.2797 82.3477 89.9482 81.5546 89.9482 80.5745C89.9482 79.7601 90.1684 79.0499 90.6087 78.4438C91.0538 77.8331 91.6504 77.3596 92.3985 77.0234C93.1513 76.6825 93.9918 76.512 94.9198 76.512C95.8573 76.512 96.6906 76.6801 97.4198 77.0163C98.149 77.3477 98.7266 77.8023 99.1528 78.3799C99.5836 78.9576 99.8109 79.6134 99.8346 80.3473H98.13ZM102.929 91.2563V76.7109H111.708V78.2734H104.691V83.1882H111.253V84.7507H104.691V89.6938H111.821V91.2563H102.929Z" fill="black"/>
</svg>
