<svg width="100" height="100" viewBox="0 0 100 100" fill="none" xmlns="http://www.w3.org/2000/svg">
<path d="M95.8984 63.6719V17.9967C95.8984 15.4338 93.8006 13.2813 91.2377 13.2813H66.627C64.8131 13.2813 63.1654 14.3756 62.409 16.0242L59.9268 21.474C59.1703 23.1227 57.5227 24.2187 55.7088 24.2187H13.191C10.6281 24.2187 8.59375 26.2551 8.59375 28.8182L8.59375 71.0766C8.59375 73.6394 10.6281 75.7812 13.191 75.7812H91.2377C91.3604 75.7812 91.4814 75.7109 91.6016 75.7016V84.5703H91.6684C91.6684 85.7422 92.6209 86.6477 93.7834 86.6477C94.9459 86.6477 95.8984 85.6775 95.8984 84.515V63.6719Z" fill="#FA65B7"/>
<path d="M93.7834 86.6476C92.6209 86.6476 91.6684 85.7422 91.6684 84.5703H91.6016V41.051C91.6016 38.4879 89.5822 36.3281 87.0193 36.3281H8.97266C6.40977 36.3281 4.29688 38.4879 4.29688 41.051L4.29687 87.7676C4.29687 90.3305 6.40977 92.3828 8.97266 92.3828H87.0193C87.2898 92.3828 87.5547 92.3711 87.8125 92.3266C88.1326 92.3709 88.459 92.4018 88.7914 92.4018C92.7055 92.4018 95.8492 89.232 95.8492 85.318C95.8492 85.2137 95.8422 85.1113 95.8379 85.0082C95.6139 85.9391 94.7764 86.6476 93.7834 86.6476Z" fill="#FF82C1"/>
</svg>
