<svg width="130" height="130" viewBox="0 0 130 130" fill="none" xmlns="http://www.w3.org/2000/svg">
<path d="M124.668 82.7734V23.3957C124.668 20.0639 121.941 17.2656 118.609 17.2656H86.615C84.257 17.2656 82.1151 18.6883 81.1317 20.8315L77.9048 27.9162C76.9214 30.0595 74.7795 31.4844 72.4214 31.4844H17.1483C13.8166 31.4844 11.1719 34.1316 11.1719 37.4636V92.3995C11.1719 95.7313 13.8166 98.5156 17.1483 98.5156H118.609C118.768 98.5156 118.926 98.4242 119.082 98.412V109.941H119.169C119.169 111.465 120.407 112.642 121.918 112.642C123.43 112.642 124.668 111.381 124.668 109.87V82.7734Z" fill="#fa65b7"/>
<path d="M121.918 112.642C120.407 112.642 119.169 111.465 119.169 109.941H119.082V53.3663C119.082 50.0343 116.457 47.2266 113.125 47.2266H11.6645C8.33269 47.2266 5.58594 50.0343 5.58594 53.3663V114.098C5.58594 117.43 8.33269 120.098 11.6645 120.098H113.125C113.477 120.098 113.821 120.082 114.156 120.025C114.572 120.082 114.997 120.122 115.429 120.122C120.517 120.122 124.604 116.002 124.604 110.913C124.604 110.778 124.595 110.645 124.589 110.511C124.298 111.721 123.209 112.642 121.918 112.642Z" fill="#ff82c1"/>
<path d="M10.2092 90.1514V75.6059H18.9308V77.1684H11.9706V82.0832H18.2774V83.6457H11.9706V90.1514H10.2092ZM21.9475 90.1514V75.6059H26.8623C27.9987 75.6059 28.9314 75.8 29.6606 76.1883C30.3898 76.5718 30.9295 77.0998 31.2799 77.7721C31.6303 78.4445 31.8055 79.2091 31.8055 80.0661C31.8055 80.9231 31.6303 81.6831 31.2799 82.346C30.9295 83.0088 30.3921 83.5297 29.6677 83.9085C28.9433 84.2825 28.0176 84.4695 26.8907 84.4695H22.9134V82.8786H26.8339C27.6104 82.8786 28.2354 82.765 28.7089 82.5377C29.1871 82.3105 29.5327 81.9885 29.7458 81.5718C29.9636 81.1504 30.0725 80.6485 30.0725 80.0661C30.0725 79.4838 29.9636 78.9748 29.7458 78.5392C29.528 78.1035 29.18 77.7674 28.7018 77.5306C28.2236 77.2892 27.5915 77.1684 26.8055 77.1684H23.7089V90.1514H21.9475ZM28.7941 83.6173L32.3737 90.1514H30.3282L26.8055 83.6173H28.7941ZM47.0132 82.8786C47.0132 84.4127 46.7362 85.7385 46.1823 86.8559C45.6283 87.9733 44.8683 88.8351 43.9024 89.4411C42.9365 90.0472 41.8333 90.3502 40.5928 90.3502C39.3522 90.3502 38.249 90.0472 37.2831 89.4411C36.3172 88.8351 35.5573 87.9733 35.0033 86.8559C34.4493 85.7385 34.1723 84.4127 34.1723 82.8786C34.1723 81.3445 34.4493 80.0188 35.0033 78.9014C35.5573 77.7839 36.3172 76.9222 37.2831 76.3161C38.249 75.7101 39.3522 75.407 40.5928 75.407C41.8333 75.407 42.9365 75.7101 43.9024 76.3161C44.8683 76.9222 45.6283 77.7839 46.1823 78.9014C46.7362 80.0188 47.0132 81.3445 47.0132 82.8786ZM45.3087 82.8786C45.3087 81.6192 45.098 80.5562 44.6766 79.6897C44.2599 78.8232 43.6941 78.1675 42.9791 77.7224C42.2689 77.2773 41.4734 77.0548 40.5928 77.0548C39.7121 77.0548 38.9143 77.2773 38.1993 77.7224C37.4891 78.1675 36.9233 78.8232 36.5019 79.6897C36.0852 80.5562 35.8769 81.6192 35.8769 82.8786C35.8769 84.1381 36.0852 85.2011 36.5019 86.0676C36.9233 86.934 37.4891 87.5898 38.1993 88.0349C38.9143 88.48 39.7121 88.7025 40.5928 88.7025C41.4734 88.7025 42.2689 88.48 42.9791 88.0349C43.6941 87.5898 44.2599 86.934 44.6766 86.0676C45.098 85.2011 45.3087 84.1381 45.3087 82.8786ZM61.509 75.6059V90.1514H59.8044L51.8783 78.7309H51.7362V90.1514H49.9749V75.6059H51.6794L59.634 87.0548H59.776V75.6059H61.509ZM64.238 77.1684V75.6059H75.1471V77.1684H70.5732V90.1514H68.8119V77.1684H64.238ZM77.8655 90.1514V75.6059H86.6439V77.1684H79.6269V82.0832H86.1894V83.6457H79.6269V88.5889H86.7575V90.1514H77.8655ZM101.353 75.6059V90.1514H99.6482L91.722 78.7309H91.58V90.1514H89.8186V75.6059H91.5232L99.4777 87.0548H99.6198V75.6059H101.353ZM109.366 90.1514H104.877V75.6059H109.565C110.976 75.6059 112.183 75.8971 113.187 76.4795C114.191 77.0571 114.96 77.8881 115.495 78.9724C116.03 80.0519 116.298 81.3445 116.298 82.8502C116.298 84.3654 116.028 85.6698 115.488 86.7636C114.948 87.8526 114.162 88.6907 113.13 89.2778C112.098 89.8602 110.843 90.1514 109.366 90.1514ZM106.639 88.5889H109.252C110.455 88.5889 111.452 88.3569 112.242 87.8928C113.033 87.4288 113.622 86.7683 114.011 85.9113C114.399 85.0543 114.593 84.0339 114.593 82.8502C114.593 81.676 114.401 80.6651 114.018 79.8176C113.634 78.9653 113.061 78.3119 112.299 77.8573C111.537 77.3981 110.587 77.1684 109.451 77.1684H106.639V88.5889Z" fill="black"/>
</svg>
