<svg width="102" height="100" viewBox="0 0 102 100" fill="none" xmlns="http://www.w3.org/2000/svg">
<path d="M97.8075 63.6719V17.9967C97.8075 15.4338 95.7096 13.2812 93.1468 13.2812H68.536C66.7221 13.2812 65.0745 14.3756 64.318 16.0242L61.8358 21.474C61.0794 23.1227 59.4317 24.2187 57.6178 24.2187H15.1001C12.5372 24.2187 10.5028 26.2551 10.5028 28.8182V71.0766C10.5028 73.6394 12.5372 75.7812 15.1001 75.7812H93.1468C93.2694 75.7812 93.3905 75.7109 93.5106 75.7016V84.5703H93.5774C93.5774 85.7422 94.53 86.6477 95.6925 86.6477C96.855 86.6477 97.8075 85.6775 97.8075 84.515V63.6719Z" fill="#fa65b7"/>
<path d="M95.6925 86.6476C94.53 86.6476 93.5774 85.7422 93.5774 84.5703H93.5106V41.051C93.5106 38.4879 91.4913 36.3281 88.9284 36.3281H10.8817C8.31882 36.3281 6.20593 38.4879 6.20593 41.051V87.7676C6.20593 90.3305 8.31882 92.3828 10.8817 92.3828H88.9284C89.1989 92.3828 89.4637 92.3711 89.7216 92.3266C90.0417 92.3709 90.368 92.4018 90.7005 92.4018C94.6145 92.4018 97.7583 89.232 97.7583 85.318C97.7583 85.2137 97.7512 85.1113 97.7469 85.0082C97.5229 85.9391 96.6854 86.6476 95.6925 86.6476Z" fill="#ff82c1"/>
<path d="M23.8235 58.538V73.0835H22.0621V58.538H23.8235ZM38.8892 58.538V73.0835H37.1847L29.2585 61.663H29.1165V73.0835H27.3551V58.538H29.0597L37.0142 69.9869H37.1562V58.538H38.8892ZM42.4137 73.0835V58.538H51.1353V60.1005H44.1751V65.0153H50.4819V66.5778H44.1751V73.0835H42.4137ZM54.152 73.0835V58.538H59.0668C60.2031 58.538 61.1359 58.7322 61.8651 59.1204C62.5942 59.5039 63.134 60.0319 63.4844 60.7042C63.8348 61.3766 64.0099 62.1413 64.0099 62.9983C64.0099 63.8553 63.8348 64.6152 63.4844 65.2781C63.134 65.941 62.5966 66.4618 61.8722 66.8406C61.1477 67.2147 60.2221 67.4017 59.0952 67.4017H55.1179V65.8108H59.0384C59.8149 65.8108 60.4399 65.6971 60.9134 65.4699C61.3916 65.2426 61.7372 64.9206 61.9503 64.504C62.1681 64.0825 62.277 63.5807 62.277 62.9983C62.277 62.4159 62.1681 61.9069 61.9503 61.4713C61.7325 61.0357 61.3845 60.6995 60.9062 60.4628C60.428 60.2213 59.7959 60.1005 59.0099 60.1005H55.9134V73.0835H54.152ZM60.9986 66.5494L64.5781 73.0835H62.5327L59.0099 66.5494H60.9986ZM67.5415 73.0835H65.695L71.0359 58.538H72.854L78.195 73.0835H76.3484L72.0018 60.8392H71.8881L67.5415 73.0835ZM68.2234 67.4017H75.6665V68.9642H68.2234V67.4017Z" fill="black"/>
</svg>
