<svg width="120" height="120" viewBox="0 0 120 120" fill="none" xmlns="http://www.w3.org/2000/svg">
<path d="M115.078 76.4062V21.596C115.078 18.5205 112.561 15.9375 109.485 15.9375H79.9523C77.7756 15.9375 75.7984 17.2507 74.8907 19.2291L71.912 25.7688C71.0043 27.7472 69.0271 29.0625 66.8505 29.0625H15.8292C12.7537 29.0625 10.3124 31.5061 10.3124 34.5818V85.2919C10.3124 88.3673 12.7537 90.9375 15.8292 90.9375H109.485C109.632 90.9375 109.778 90.8531 109.922 90.8419V101.484H110.002C110.002 102.891 111.145 103.977 112.54 103.977C113.935 103.977 115.078 102.813 115.078 101.418V76.4062Z" fill="#fa65b7"/>
<path d="M112.54 103.977C111.145 103.977 110.002 102.891 110.002 101.484H109.922V49.2612C109.922 46.1855 107.499 43.5938 104.423 43.5938H10.7672C7.69172 43.5938 5.15625 46.1855 5.15625 49.2612V105.321C5.15625 108.397 7.69172 110.859 10.7672 110.859H104.423C104.748 110.859 105.066 110.845 105.375 110.792C105.759 110.845 106.151 110.882 106.55 110.882C111.247 110.882 115.019 107.078 115.019 102.382C115.019 102.256 115.011 102.134 115.005 102.01C114.737 103.127 113.732 103.977 112.54 103.977Z" fill="#ff82c1"/>
<path d="M13.9952 82.8979V68.3525H15.7566V81.3354H22.5179V82.8979H13.9952ZM28.2281 83.1536C27.5369 83.1536 26.9095 83.0234 26.346 82.763C25.7826 82.4979 25.3352 82.1167 25.0037 81.6195C24.6723 81.1176 24.5066 80.5116 24.5066 79.8014C24.5066 79.1764 24.6297 78.6697 24.8759 78.2815C25.1221 77.8885 25.4512 77.5807 25.8631 77.3582C26.275 77.1356 26.7296 76.9699 27.2267 76.861C27.7286 76.7474 28.2329 76.6574 28.7395 76.5911C29.4024 76.5059 29.9398 76.442 30.3517 76.3994C30.7684 76.352 31.0714 76.2739 31.2608 76.165C31.4549 76.0561 31.552 75.8667 31.552 75.5968V75.54C31.552 74.8392 31.3602 74.2947 30.9767 73.9065C30.5979 73.5182 30.0227 73.3241 29.2509 73.3241C28.4507 73.3241 27.8233 73.4993 27.3688 73.8497C26.9142 74.2 26.5946 74.5741 26.41 74.9718L24.8191 74.4036C25.1031 73.7408 25.4819 73.2247 25.9554 72.8553C26.4336 72.4813 26.9545 72.2209 27.5179 72.0741C28.0861 71.9226 28.6448 71.8468 29.1941 71.8468C29.5444 71.8468 29.9469 71.8894 30.4014 71.9747C30.8607 72.0551 31.3034 72.2232 31.7296 72.4789C32.1604 72.7346 32.5179 73.1205 32.802 73.6366C33.0861 74.1527 33.2281 74.844 33.2281 75.7104V82.8979H31.552V81.4207H31.4668C31.3531 81.6574 31.1638 81.9107 30.8986 82.1806C30.6334 82.4505 30.2807 82.6801 29.8404 82.8695C29.4 83.0589 28.8626 83.1536 28.2281 83.1536ZM28.4838 81.6479C29.1467 81.6479 29.7054 81.5177 30.16 81.2573C30.6192 80.9969 30.9649 80.6607 31.1969 80.2488C31.4336 79.8369 31.552 79.4036 31.552 78.9491V77.415C31.481 77.5002 31.3247 77.5783 31.0833 77.6494C30.8465 77.7157 30.5719 77.7748 30.2594 77.8269C29.9516 77.8743 29.651 77.9169 29.3574 77.9548C29.0686 77.9879 28.8342 78.0163 28.6543 78.04C28.2187 78.0968 27.8115 78.1891 27.4327 78.317C27.0586 78.4401 26.7556 78.6271 26.5236 78.8781C26.2963 79.1243 26.1827 79.4604 26.1827 79.8866C26.1827 80.469 26.3981 80.9093 26.829 81.2076C27.2646 81.5012 27.8162 81.6479 28.4838 81.6479ZM37.9636 76.3354V82.8979H36.2874V71.9889H37.9068V73.6934H38.0488C38.3045 73.1394 38.6928 72.6944 39.2136 72.3582C39.7344 72.0173 40.4068 71.8468 41.2306 71.8468C41.9693 71.8468 42.6156 71.9983 43.1696 72.3014C43.7235 72.5997 44.1544 73.0542 44.4622 73.665C44.7699 74.2711 44.9238 75.0381 44.9238 75.9661V82.8979H43.2477V76.0798C43.2477 75.2228 43.0251 74.5551 42.5801 74.0769C42.135 73.594 41.5242 73.3525 40.7477 73.3525C40.2126 73.3525 39.7344 73.4685 39.313 73.7005C38.8963 73.9325 38.5673 74.2711 38.3258 74.7161C38.0843 75.1612 37.9636 75.701 37.9636 76.3354ZM52.3901 87.2161C51.5804 87.2161 50.8844 87.112 50.302 86.9036C49.7196 86.7 49.2343 86.4301 48.846 86.094C48.4625 85.7625 48.1571 85.4074 47.9298 85.0286L49.2651 84.0911C49.4166 84.29 49.6084 84.5173 49.8404 84.7729C50.0724 85.0334 50.3896 85.2583 50.7921 85.4477C51.1993 85.6418 51.7319 85.7389 52.3901 85.7389C53.2708 85.7389 53.9976 85.5258 54.5705 85.0997C55.1434 84.6735 55.4298 84.0059 55.4298 83.0968V80.8809H55.2878C55.1647 81.0798 54.9895 81.326 54.7622 81.6195C54.5397 81.9084 54.2177 82.1664 53.7963 82.3937C53.3797 82.6162 52.8162 82.7275 52.106 82.7275C51.2253 82.7275 50.4346 82.5192 49.7338 82.1025C49.0378 81.6858 48.4862 81.0798 48.079 80.2843C47.6765 79.4889 47.4753 78.5229 47.4753 77.3866C47.4753 76.2692 47.6718 75.2961 48.0648 74.4676C48.4578 73.6342 49.0047 72.9903 49.7054 72.5357C50.4062 72.0765 51.2158 71.8468 52.1344 71.8468C52.8446 71.8468 53.4081 71.9652 53.8247 72.2019C54.2461 72.4339 54.5681 72.6991 54.7906 72.9974C55.0179 73.2909 55.1931 73.5324 55.3162 73.7218H55.4867V71.9889H57.106V83.2104C57.106 84.1479 56.8929 84.9103 56.4668 85.4974C56.0454 86.0892 55.4772 86.5225 54.7622 86.7971C54.052 87.0765 53.2613 87.2161 52.3901 87.2161ZM52.3333 81.2218C53.0056 81.2218 53.5738 81.0679 54.0378 80.7602C54.5018 80.4524 54.8546 80.0097 55.096 79.432C55.3375 78.8544 55.4583 78.1631 55.4583 77.3582C55.4583 76.5722 55.3399 75.8785 55.1031 75.2772C54.8664 74.6759 54.516 74.2048 54.052 73.8639C53.588 73.5229 53.0151 73.3525 52.3333 73.3525C51.623 73.3525 51.0312 73.5324 50.5577 73.8923C50.0889 74.2521 49.7362 74.7351 49.4995 75.3411C49.2674 75.9472 49.1514 76.6195 49.1514 77.3582C49.1514 78.1158 49.2698 78.7857 49.5066 79.3681C49.748 79.9458 50.1031 80.4003 50.5719 80.7318C51.0454 81.0585 51.6325 81.2218 52.3333 81.2218ZM67.0492 78.4377V71.9889H68.7253V82.8979H67.0492V81.0514H66.9355C66.6798 81.6053 66.2821 82.0765 65.7423 82.4647C65.2026 82.8482 64.5208 83.04 63.6969 83.04C63.0151 83.04 62.409 82.8908 61.8787 82.5926C61.3484 82.2895 60.9317 81.835 60.6287 81.2289C60.3257 80.6181 60.1742 79.8487 60.1742 78.9207V71.9889H61.8503V78.807C61.8503 79.6025 62.0728 80.237 62.5179 80.7104C62.9677 81.1839 63.5406 81.4207 64.2367 81.4207C64.6533 81.4207 65.0771 81.3141 65.508 81.1011C65.9436 80.888 66.3082 80.5613 66.6017 80.121C66.9 79.6806 67.0492 79.1195 67.0492 78.4377ZM75.0055 83.1536C74.3142 83.1536 73.6868 83.0234 73.1234 82.763C72.5599 82.4979 72.1125 82.1167 71.7811 81.6195C71.4496 81.1176 71.2839 80.5116 71.2839 79.8014C71.2839 79.1764 71.407 78.6697 71.6532 78.2815C71.8994 77.8885 72.2285 77.5807 72.6404 77.3582C73.0524 77.1356 73.5069 76.9699 74.0041 76.861C74.506 76.7474 75.0102 76.6574 75.5169 76.5911C76.1797 76.5059 76.7171 76.442 77.1291 76.3994C77.5457 76.352 77.8488 76.2739 78.0382 76.165C78.2323 76.0561 78.3294 75.8667 78.3294 75.5968V75.54C78.3294 74.8392 78.1376 74.2947 77.7541 73.9065C77.3753 73.5182 76.8 73.3241 76.0282 73.3241C75.228 73.3241 74.6007 73.4993 74.1461 73.8497C73.6916 74.2 73.372 74.5741 73.1873 74.9718L71.5964 74.4036C71.8805 73.7408 72.2593 73.2247 72.7328 72.8553C73.211 72.4813 73.7318 72.2209 74.2953 72.0741C74.8634 71.9226 75.4222 71.8468 75.9714 71.8468C76.3218 71.8468 76.7242 71.8894 77.1788 71.9747C77.6381 72.0551 78.0808 72.2232 78.5069 72.4789C78.9378 72.7346 79.2953 73.1205 79.5794 73.6366C79.8634 74.1527 80.0055 74.844 80.0055 75.7104V82.8979H78.3294V81.4207H78.2441C78.1305 81.6574 77.9411 81.9107 77.6759 82.1806C77.4108 82.4505 77.058 82.6801 76.6177 82.8695C76.1774 83.0589 75.64 83.1536 75.0055 83.1536ZM75.2612 81.6479C75.924 81.6479 76.4828 81.5177 76.9373 81.2573C77.3966 80.9969 77.7422 80.6607 77.9742 80.2488C78.211 79.8369 78.3294 79.4036 78.3294 78.9491V77.415C78.2583 77.5002 78.1021 77.5783 77.8606 77.6494C77.6239 77.7157 77.3492 77.7748 77.0367 77.8269C76.729 77.8743 76.4283 77.9169 76.1347 77.9548C75.8459 77.9879 75.6115 78.0163 75.4316 78.04C74.996 78.0968 74.5888 78.1891 74.21 78.317C73.836 78.4401 73.5329 78.6271 73.3009 78.8781C73.0737 79.1243 72.96 79.4604 72.96 79.8866C72.96 80.469 73.1755 80.9093 73.6063 81.2076C74.0419 81.5012 74.5936 81.6479 75.2612 81.6479ZM87.4682 87.2161C86.6585 87.2161 85.9625 87.112 85.3801 86.9036C84.7977 86.7 84.3124 86.4301 83.9242 86.094C83.5406 85.7625 83.2352 85.4074 83.008 85.0286L84.3432 84.0911C84.4947 84.29 84.6865 84.5173 84.9185 84.7729C85.1505 85.0334 85.4677 85.2583 85.8702 85.4477C86.2774 85.6418 86.8101 85.7389 87.4682 85.7389C88.3489 85.7389 89.0757 85.5258 89.6486 85.0997C90.2215 84.6735 90.508 84.0059 90.508 83.0968V80.8809H90.3659C90.2428 81.0798 90.0676 81.326 89.8404 81.6195C89.6178 81.9084 89.2959 82.1664 88.8745 82.3937C88.4578 82.6162 87.8943 82.7275 87.1841 82.7275C86.3034 82.7275 85.5127 82.5192 84.812 82.1025C84.1159 81.6858 83.5643 81.0798 83.1571 80.2843C82.7547 79.4889 82.5534 78.5229 82.5534 77.3866C82.5534 76.2692 82.7499 75.2961 83.1429 74.4676C83.5359 73.6342 84.0828 72.9903 84.7835 72.5357C85.4843 72.0765 86.294 71.8468 87.2125 71.8468C87.9227 71.8468 88.4862 71.9652 88.9029 72.2019C89.3243 72.4339 89.6462 72.6991 89.8688 72.9974C90.096 73.2909 90.2712 73.5324 90.3943 73.7218H90.5648V71.9889H92.1841V83.2104C92.1841 84.1479 91.971 84.9103 91.5449 85.4974C91.1235 86.0892 90.5553 86.5225 89.8404 86.7971C89.1301 87.0765 88.3394 87.2161 87.4682 87.2161ZM87.4114 81.2218C88.0837 81.2218 88.6519 81.0679 89.1159 80.7602C89.5799 80.4524 89.9327 80.0097 90.1742 79.432C90.4156 78.8544 90.5364 78.1631 90.5364 77.3582C90.5364 76.5722 90.418 75.8785 90.1813 75.2772C89.9445 74.6759 89.5941 74.2048 89.1301 73.8639C88.6661 73.5229 88.0932 73.3525 87.4114 73.3525C86.7012 73.3525 86.1093 73.5324 85.6358 73.8923C85.1671 74.2521 84.8143 74.7351 84.5776 75.3411C84.3456 75.9472 84.2296 76.6195 84.2296 77.3582C84.2296 78.1158 84.3479 78.7857 84.5847 79.3681C84.8262 79.9458 85.1813 80.4003 85.65 80.7318C86.1235 81.0585 86.7106 81.2218 87.4114 81.2218ZM99.8262 83.1252C98.775 83.1252 97.8683 82.8932 97.106 82.4292C96.3484 81.9604 95.7637 81.307 95.3517 80.469C94.9445 79.6262 94.7409 78.6461 94.7409 77.5286C94.7409 76.4112 94.9445 75.4264 95.3517 74.5741C95.7637 73.7171 96.3366 73.0495 97.0705 72.5712C97.8091 72.0883 98.6709 71.8468 99.6557 71.8468C100.224 71.8468 100.785 71.9415 101.339 72.1309C101.893 72.3203 102.397 72.6281 102.852 73.0542C103.306 73.4756 103.668 74.0343 103.938 74.7303C104.208 75.4264 104.343 76.2834 104.343 77.3014V78.0116H95.9341V76.5627H102.639C102.639 75.9472 102.516 75.3979 102.269 74.915C102.028 74.432 101.682 74.0509 101.232 73.7715C100.787 73.4922 100.262 73.3525 99.6557 73.3525C98.9881 73.3525 98.4104 73.5182 97.9227 73.8497C97.4398 74.1764 97.0681 74.6025 96.8077 75.1281C96.5473 75.6536 96.4171 76.2171 96.4171 76.8184V77.7843C96.4171 78.6082 96.5591 79.3066 96.8432 79.8795C97.132 80.4477 97.5321 80.8809 98.0435 81.1792C98.5548 81.4728 99.1491 81.6195 99.8262 81.6195C100.266 81.6195 100.664 81.558 101.019 81.4349C101.379 81.307 101.689 81.1176 101.95 80.8667C102.21 80.611 102.411 80.2938 102.553 79.915L104.173 80.3695C104.002 80.9188 103.716 81.4017 103.313 81.8184C102.911 82.2303 102.414 82.5523 101.822 82.7843C101.23 83.0116 100.565 83.1252 99.8262 83.1252Z" fill="black"/>
</svg>
