<svg width="23" height="23" viewBox="0 0 23 23" fill="none" xmlns="http://www.w3.org/2000/svg">
<path fill-rule="evenodd" clip-rule="evenodd" d="M5.43573 3.92432C7.0474 2.33624 9.21766 1.44363 11.4803 1.43826C13.7429 1.43288 15.9174 2.31516 17.5366 3.89557H17.5385L17.5692 3.92432C20.9665 7.26603 20.9732 12.6337 17.6094 15.9418L12.1747 21.2874C11.9955 21.4639 11.754 21.5628 11.5025 21.5628C11.2509 21.5628 11.0095 21.4639 10.8302 21.2874L5.39548 15.9418C4.59759 15.1618 3.96362 14.2301 3.53079 13.2016C3.09796 12.1732 2.875 11.0686 2.875 9.95272C2.875 8.83687 3.09796 7.73227 3.53079 6.70379C3.96362 5.67531 4.59759 4.74368 5.39548 3.96361L5.43573 3.92432ZM11.5001 6.22911C11.1225 6.22911 10.7487 6.30348 10.3998 6.44796C10.051 6.59244 9.7341 6.80421 9.46713 7.07118C9.20016 7.33815 8.98839 7.65509 8.8439 8.0039C8.69942 8.35271 8.62506 8.72656 8.62506 9.10411C8.62506 9.48166 8.69942 9.85552 8.8439 10.2043C8.98839 10.5531 9.20016 10.8701 9.46713 11.137C9.7341 11.404 10.051 11.6158 10.3998 11.7603C10.7487 11.9047 11.1225 11.9791 11.5001 11.9791C12.2626 11.9791 12.9938 11.6762 13.533 11.137C14.0722 10.5979 14.3751 9.86661 14.3751 9.10411C14.3751 8.34161 14.0722 7.61035 13.533 7.07118C12.9938 6.53201 12.2626 6.22911 11.5001 6.22911Z" fill="#00375B"/>
</svg>
